<mxfile host="app.diagrams.net" modified="2023-10-16T08:34:32.600Z" agent="Mozilla/5.0 (Windows NT 10.0; Win64; x64; rv:109.0) Gecko/20100101 Firefox/118.0" etag="y1-qpLFqOYNOnMrmohmq" version="22.0.4" type="github">
  <diagram name="Page-1" id="F7ay7ohgeMKOfHj8DUzm">
    <mxGraphModel dx="1864" dy="1426" grid="1" gridSize="10" guides="1" tooltips="1" connect="1" arrows="1" fold="1" page="1" pageScale="1" pageWidth="1169" pageHeight="826" math="0" shadow="0">
      <root>
        <mxCell id="0" />
        <mxCell id="1" parent="0" />
        <mxCell id="HeOBe028sCcN_plMuULF-1" value="Assuré&lt;span&gt;&lt;/span&gt;" style="swimlane;whiteSpace=wrap;html=1;" vertex="1" parent="1">
          <mxGeometry x="-440" y="30" width="360" height="1390" as="geometry" />
        </mxCell>
        <mxCell id="HeOBe028sCcN_plMuULF-5" value="" style="edgeStyle=orthogonalEdgeStyle;html=1;verticalAlign=bottom;endArrow=open;endSize=8;strokeColor=#ff0000;rounded=0;" edge="1" parent="HeOBe028sCcN_plMuULF-1">
          <mxGeometry relative="1" as="geometry">
            <mxPoint x="530" y="130" as="targetPoint" />
            <mxPoint x="194.99985185112018" y="95.0666666666666" as="sourcePoint" />
            <Array as="points">
              <mxPoint x="531" y="95" />
              <mxPoint x="531" y="130" />
            </Array>
          </mxGeometry>
        </mxCell>
        <mxCell id="HeOBe028sCcN_plMuULF-6" value="" style="ellipse;" vertex="1" parent="HeOBe028sCcN_plMuULF-1">
          <mxGeometry x="165" y="80" width="30" height="30" as="geometry" />
        </mxCell>
        <mxCell id="HeOBe028sCcN_plMuULF-14" value="" style="ellipse;html=1;shape=endState;fillColor=strokeColor;" vertex="1" parent="HeOBe028sCcN_plMuULF-1">
          <mxGeometry x="165" y="1290" width="30" height="30" as="geometry" />
        </mxCell>
        <mxCell id="HeOBe028sCcN_plMuULF-18" value="Prévenu de l&#39;expertise externe" style="html=1;align=center;verticalAlign=top;rounded=1;absoluteArcSize=1;arcSize=10;dashed=0;whiteSpace=wrap;" vertex="1" parent="HeOBe028sCcN_plMuULF-1">
          <mxGeometry x="200" y="340" width="140" height="40" as="geometry" />
        </mxCell>
        <mxCell id="HeOBe028sCcN_plMuULF-10" value="Informé" style="html=1;align=center;verticalAlign=top;rounded=1;absoluteArcSize=1;arcSize=10;dashed=0;whiteSpace=wrap;" vertex="1" parent="HeOBe028sCcN_plMuULF-1">
          <mxGeometry x="110" y="190" width="140" height="40" as="geometry" />
        </mxCell>
        <mxCell id="HeOBe028sCcN_plMuULF-25" value="Possession de la facture" style="html=1;align=center;verticalAlign=top;rounded=1;absoluteArcSize=1;arcSize=10;dashed=0;whiteSpace=wrap;" vertex="1" parent="HeOBe028sCcN_plMuULF-1">
          <mxGeometry x="200" y="510" width="140" height="40" as="geometry" />
        </mxCell>
        <mxCell id="HeOBe028sCcN_plMuULF-2" value="Agent d&#39;assurance" style="swimlane;whiteSpace=wrap;html=1;" vertex="1" parent="1">
          <mxGeometry x="-80" y="30" width="360" height="1390" as="geometry" />
        </mxCell>
        <mxCell id="HeOBe028sCcN_plMuULF-15" style="edgeStyle=orthogonalEdgeStyle;rounded=0;orthogonalLoop=1;jettySize=auto;html=1;exitX=1;exitY=0.5;exitDx=0;exitDy=0;" edge="1" parent="HeOBe028sCcN_plMuULF-2" source="HeOBe028sCcN_plMuULF-8">
          <mxGeometry relative="1" as="geometry">
            <mxPoint x="160" y="340" as="targetPoint" />
          </mxGeometry>
        </mxCell>
        <mxCell id="HeOBe028sCcN_plMuULF-17" value="Oui" style="edgeLabel;html=1;align=center;verticalAlign=middle;resizable=0;points=[];" vertex="1" connectable="0" parent="HeOBe028sCcN_plMuULF-15">
          <mxGeometry x="-0.4662" y="-5" relative="1" as="geometry">
            <mxPoint as="offset" />
          </mxGeometry>
        </mxCell>
        <mxCell id="HeOBe028sCcN_plMuULF-8" value="Acceptation du cas d&#39;accident ?" style="rhombus;" vertex="1" parent="HeOBe028sCcN_plMuULF-2">
          <mxGeometry x="80" y="130" width="190" height="150" as="geometry" />
        </mxCell>
        <mxCell id="HeOBe028sCcN_plMuULF-19" value="" style="html=1;points=[];perimeter=orthogonalPerimeter;fillColor=strokeColor;rotation=90;" vertex="1" parent="HeOBe028sCcN_plMuULF-2">
          <mxGeometry x="156.5" y="299.5" width="5" height="87" as="geometry" />
        </mxCell>
        <mxCell id="HeOBe028sCcN_plMuULF-24" style="edgeStyle=orthogonalEdgeStyle;rounded=0;orthogonalLoop=1;jettySize=auto;html=1;exitX=0.5;exitY=1;exitDx=0;exitDy=0;" edge="1" parent="HeOBe028sCcN_plMuULF-2" source="HeOBe028sCcN_plMuULF-22">
          <mxGeometry relative="1" as="geometry">
            <mxPoint x="-89.99999999999977" y="510" as="targetPoint" />
          </mxGeometry>
        </mxCell>
        <mxCell id="HeOBe028sCcN_plMuULF-22" value="Damande la facture d&#39;accident au client" style="html=1;align=center;verticalAlign=top;rounded=1;absoluteArcSize=1;arcSize=10;dashed=0;whiteSpace=wrap;" vertex="1" parent="HeOBe028sCcN_plMuULF-2">
          <mxGeometry x="105" y="430" width="140" height="40" as="geometry" />
        </mxCell>
        <mxCell id="HeOBe028sCcN_plMuULF-32" style="edgeStyle=orthogonalEdgeStyle;rounded=0;orthogonalLoop=1;jettySize=auto;html=1;exitX=0.5;exitY=1;exitDx=0;exitDy=0;" edge="1" parent="HeOBe028sCcN_plMuULF-2" source="HeOBe028sCcN_plMuULF-27">
          <mxGeometry relative="1" as="geometry">
            <mxPoint x="180.61538461538453" y="730" as="targetPoint" />
          </mxGeometry>
        </mxCell>
        <mxCell id="HeOBe028sCcN_plMuULF-27" value="Recoit l&#39;expertise et la facture d&#39;accident" style="html=1;align=center;verticalAlign=top;rounded=1;absoluteArcSize=1;arcSize=10;dashed=0;whiteSpace=wrap;" vertex="1" parent="HeOBe028sCcN_plMuULF-2">
          <mxGeometry x="110" y="620" width="140" height="40" as="geometry" />
        </mxCell>
        <mxCell id="HeOBe028sCcN_plMuULF-29" value="" style="html=1;points=[];perimeter=orthogonalPerimeter;fillColor=strokeColor;rotation=90;" vertex="1" parent="HeOBe028sCcN_plMuULF-2">
          <mxGeometry x="177.5" y="550" width="5" height="80" as="geometry" />
        </mxCell>
        <mxCell id="HeOBe028sCcN_plMuULF-31" value="" style="edgeStyle=none;orthogonalLoop=1;jettySize=auto;html=1;rounded=0;exitX=0.5;exitY=0.546;exitDx=0;exitDy=0;exitPerimeter=0;entryX=0.5;entryY=0;entryDx=0;entryDy=0;" edge="1" parent="HeOBe028sCcN_plMuULF-2" source="HeOBe028sCcN_plMuULF-29" target="HeOBe028sCcN_plMuULF-27">
          <mxGeometry width="100" relative="1" as="geometry">
            <mxPoint x="90" y="730" as="sourcePoint" />
            <mxPoint x="190" y="730" as="targetPoint" />
            <Array as="points" />
          </mxGeometry>
        </mxCell>
        <mxCell id="HeOBe028sCcN_plMuULF-33" value="Paye le client" style="html=1;align=center;verticalAlign=top;rounded=1;absoluteArcSize=1;arcSize=10;dashed=0;whiteSpace=wrap;" vertex="1" parent="HeOBe028sCcN_plMuULF-2">
          <mxGeometry x="110" y="730" width="140" height="40" as="geometry" />
        </mxCell>
        <mxCell id="HeOBe028sCcN_plMuULF-3" value="Expert" style="swimlane;whiteSpace=wrap;html=1;" vertex="1" parent="1">
          <mxGeometry x="280" y="30" width="360" height="1390" as="geometry" />
        </mxCell>
        <mxCell id="HeOBe028sCcN_plMuULF-16" value="Expertise" style="html=1;align=center;verticalAlign=top;rounded=1;absoluteArcSize=1;arcSize=10;dashed=0;whiteSpace=wrap;" vertex="1" parent="HeOBe028sCcN_plMuULF-3">
          <mxGeometry x="30" y="298" width="210" height="90" as="geometry" />
        </mxCell>
        <mxCell id="HeOBe028sCcN_plMuULF-9" style="edgeStyle=orthogonalEdgeStyle;rounded=0;orthogonalLoop=1;jettySize=auto;html=1;exitX=0;exitY=0.5;exitDx=0;exitDy=0;entryX=1;entryY=0.5;entryDx=0;entryDy=0;" edge="1" parent="1" source="HeOBe028sCcN_plMuULF-8" target="HeOBe028sCcN_plMuULF-10">
          <mxGeometry relative="1" as="geometry">
            <mxPoint x="-180" y="240" as="targetPoint" />
          </mxGeometry>
        </mxCell>
        <mxCell id="HeOBe028sCcN_plMuULF-11" value="Non" style="edgeLabel;html=1;align=center;verticalAlign=middle;resizable=0;points=[];" vertex="1" connectable="0" parent="HeOBe028sCcN_plMuULF-9">
          <mxGeometry x="-0.5896" relative="1" as="geometry">
            <mxPoint as="offset" />
          </mxGeometry>
        </mxCell>
        <mxCell id="HeOBe028sCcN_plMuULF-12" style="edgeStyle=orthogonalEdgeStyle;rounded=0;orthogonalLoop=1;jettySize=auto;html=1;exitX=0.5;exitY=1;exitDx=0;exitDy=0;" edge="1" parent="1" source="HeOBe028sCcN_plMuULF-10">
          <mxGeometry relative="1" as="geometry">
            <mxPoint x="-260" y="1325.666666666667" as="targetPoint" />
          </mxGeometry>
        </mxCell>
        <mxCell id="HeOBe028sCcN_plMuULF-20" style="edgeStyle=orthogonalEdgeStyle;rounded=0;orthogonalLoop=1;jettySize=auto;html=1;exitX=0;exitY=0.5;exitDx=0;exitDy=0;entryX=0.567;entryY=0.165;entryDx=0;entryDy=0;entryPerimeter=0;" edge="1" parent="1" source="HeOBe028sCcN_plMuULF-16" target="HeOBe028sCcN_plMuULF-19">
          <mxGeometry relative="1" as="geometry" />
        </mxCell>
        <mxCell id="HeOBe028sCcN_plMuULF-21" style="edgeStyle=orthogonalEdgeStyle;rounded=0;orthogonalLoop=1;jettySize=auto;html=1;exitX=1;exitY=0.5;exitDx=0;exitDy=0;entryX=0.567;entryY=0.657;entryDx=0;entryDy=0;entryPerimeter=0;" edge="1" parent="1" source="HeOBe028sCcN_plMuULF-18" target="HeOBe028sCcN_plMuULF-19">
          <mxGeometry relative="1" as="geometry" />
        </mxCell>
        <mxCell id="HeOBe028sCcN_plMuULF-23" style="edgeStyle=orthogonalEdgeStyle;rounded=0;orthogonalLoop=1;jettySize=auto;html=1;exitX=0.5;exitY=1;exitDx=0;exitDy=0;entryX=0.5;entryY=0;entryDx=0;entryDy=0;" edge="1" parent="1" source="HeOBe028sCcN_plMuULF-18" target="HeOBe028sCcN_plMuULF-22">
          <mxGeometry relative="1" as="geometry" />
        </mxCell>
        <mxCell id="HeOBe028sCcN_plMuULF-28" style="edgeStyle=orthogonalEdgeStyle;rounded=0;orthogonalLoop=1;jettySize=auto;html=1;exitX=0.25;exitY=1;exitDx=0;exitDy=0;entryX=0.5;entryY=0.213;entryDx=0;entryDy=0;entryPerimeter=0;" edge="1" parent="1" source="HeOBe028sCcN_plMuULF-16" target="HeOBe028sCcN_plMuULF-29">
          <mxGeometry relative="1" as="geometry" />
        </mxCell>
        <mxCell id="HeOBe028sCcN_plMuULF-26" style="edgeStyle=orthogonalEdgeStyle;rounded=0;orthogonalLoop=1;jettySize=auto;html=1;exitX=0.5;exitY=1;exitDx=0;exitDy=0;entryX=0.5;entryY=0.75;entryDx=0;entryDy=0;entryPerimeter=0;" edge="1" parent="1" source="HeOBe028sCcN_plMuULF-25" target="HeOBe028sCcN_plMuULF-29">
          <mxGeometry relative="1" as="geometry">
            <mxPoint x="100.00000000000023" y="650" as="targetPoint" />
          </mxGeometry>
        </mxCell>
        <mxCell id="HeOBe028sCcN_plMuULF-34" style="edgeStyle=orthogonalEdgeStyle;rounded=0;orthogonalLoop=1;jettySize=auto;html=1;exitX=0;exitY=0.5;exitDx=0;exitDy=0;entryX=0.5;entryY=0;entryDx=0;entryDy=0;" edge="1" parent="1" source="HeOBe028sCcN_plMuULF-33" target="HeOBe028sCcN_plMuULF-14">
          <mxGeometry relative="1" as="geometry" />
        </mxCell>
      </root>
    </mxGraphModel>
  </diagram>
</mxfile>
